<svg width="56" height="56" viewBox="0 0 56 56" fill="none" xmlns="http://www.w3.org/2000/svg">
  <path d="M14 28C14 20.5 20.5 14 28 14C35.5 14 42 20.5 42 28C42 35.5 35.5 42 28 42C20.5 42 14 35.5 14 28Z" fill="#73ED7C" opacity="0.1"/>
  <path d="M22 22C22 20.5 23.5 19 25 19C26.5 19 28 20.5 28 22C28 23.5 26.5 25 25 25C23.5 25 22 23.5 22 22Z" fill="#73ED7C"/>
  <path d="M30 22C30 20.5 31.5 19 33 19C34.5 19 36 20.5 36 22C36 23.5 34.5 25 33 25C31.5 25 30 23.5 30 22Z" fill="#73ED7C"/>
  <path d="M22 30C22 28.5 23.5 27 25 27C26.5 27 28 28.5 28 30C28 31.5 26.5 33 25 33C23.5 33 22 31.5 22 30Z" fill="#73ED7C"/>
  <path d="M30 30C30 28.5 31.5 27 33 27C34.5 27 36 28.5 36 30C36 31.5 34.5 33 33 33C31.5 33 30 31.5 30 30Z" fill="#73ED7C"/>
</svg>

